<svg width="90" height="28" viewBox="0 0 90 28" fill="none" xmlns="http://www.w3.org/2000/svg">
<g clip-path="url(#clip0_4114_44797)">
<path d="M21 0H7C3.13401 0 0 3.13401 0 7V21C0 24.866 3.13401 28 7 28H21C24.866 28 28 24.866 28 21V7C28 3.13401 24.866 0 21 0Z" fill="black"/>
<path d="M21 0H7C3.13401 0 0 3.13401 0 7V21C0 24.866 3.13401 28 7 28H21C24.866 28 28 24.866 28 21V7C28 3.13401 24.866 0 21 0Z" stroke="#F5FA5E" stroke-width="0.7"/>
<path d="M7.33492 8.53804C8.63132 5.79183 11.4676 4.16537 14.5789 4.3968C17.5189 4.61319 20.1319 6.76226 20.9466 9.63928C21.3838 11.1621 21.3241 12.6591 20.6732 14.2426L20.233 15.2496C18.7316 18.0367 16.4405 21.0903 14.3035 23.4048C14.0562 23.6718 13.8499 23.714 13.5863 23.4287C12.4782 22.2326 11.4039 21.0115 10.42 19.725C10.3238 19.5992 10.326 19.4239 10.4234 19.2991L14.0519 14.6541C14.171 14.502 14.3911 14.475 14.5434 14.5939L15.534 15.3685C15.755 15.5413 16.0793 15.3968 16.0986 15.1169L16.4308 10.273C16.4475 10.0274 16.2118 9.842 15.9769 9.91543L11.312 11.3735C11.043 11.4579 10.9792 11.8096 11.2013 11.9833L12.1987 12.7626C12.3507 12.8816 12.3777 13.1012 12.2589 13.2534L9.20525 17.1622C9.05622 17.3527 8.76348 17.3382 8.63783 17.1314C8.26788 16.5229 7.92187 15.8969 7.60561 15.2496C6.53164 13.0518 6.25559 10.8244 7.33492 8.53804Z" fill="#F5FA5E"/>
<path d="M7.33521 8.53818C8.63161 5.79207 11.4673 4.16495 14.5786 4.39629C17.5185 4.61261 20.1322 6.76238 20.9469 9.63949C21.3841 11.1623 21.3244 12.6594 20.6735 14.2428L20.2333 15.2497C18.7318 18.037 16.4402 21.0904 14.3031 23.405C14.0558 23.672 13.8496 23.7144 13.586 23.4289C12.4777 22.2326 11.4036 21.0112 10.4196 19.7245C10.3234 19.5988 10.3256 19.4241 10.423 19.2993L14.0522 14.6543C14.1712 14.5023 14.3908 14.4754 14.543 14.5942L15.5342 15.3686C15.7554 15.5414 16.0796 15.397 16.0989 15.1171L16.4305 10.2731C16.4471 10.0276 16.2121 9.84235 15.9772 9.91564L11.3124 11.3737C11.043 11.4579 10.9793 11.8098 11.2017 11.9835L12.199 12.7628C12.351 12.8818 12.3779 13.1014 12.2592 13.2536L9.20484 17.1631C9.05588 17.3536 8.76314 17.3391 8.63749 17.1324C8.26747 16.5236 7.9216 15.8973 7.60527 15.2497C6.53125 13.0519 6.25584 10.8247 7.33521 8.53818Z" fill="#F5FA5E"/>
<path d="M37.872 7.55615C38.7024 7.55615 39.4323 7.72359 40.0619 8.05847C40.6913 8.37991 41.1869 8.8018 41.5485 9.32414V7.73696H44.3813V18.9475C44.3813 19.9788 44.1737 20.8963 43.7585 21.6999C43.3432 22.5169 42.7205 23.1598 41.89 23.6286C41.0596 24.1107 40.0551 24.3518 38.8765 24.3518C37.296 24.3518 35.9968 23.9835 34.9789 23.2469C33.9744 22.5102 33.4052 21.5057 33.2712 20.2333H36.0638C36.2112 20.7423 36.5259 21.1441 37.008 21.4387C37.5036 21.7468 38.0996 21.9008 38.7961 21.9008C39.6132 21.9008 40.2761 21.653 40.7851 21.1574C41.2941 20.6753 41.5485 19.9386 41.5485 18.9475V17.2197C41.1869 17.7421 40.6846 18.1773 40.0418 18.5256C39.4123 18.8738 38.6889 19.0479 37.872 19.0479C36.9344 19.0479 36.0772 18.8068 35.3004 18.3247C34.5235 17.8425 33.9075 17.1661 33.452 16.2955C33.0101 15.4116 32.7891 14.4003 32.7891 13.2619C32.7891 12.1368 33.0101 11.139 33.452 10.2684C33.9075 9.39778 34.5169 8.72809 35.2803 8.25937C36.0571 7.79058 36.921 7.55615 37.872 7.55615ZM41.5485 13.302C41.5485 12.619 41.4146 12.0364 41.1467 11.5542C40.8788 11.0586 40.5172 10.6836 40.0619 10.4291C39.6064 10.1613 39.1176 10.0273 38.5952 10.0273C38.0729 10.0273 37.5907 10.1546 37.1487 10.409C36.7067 10.6635 36.3451 11.0385 36.0638 11.5341C35.7959 12.0163 35.662 12.5922 35.662 13.2619C35.662 13.9315 35.7959 14.5209 36.0638 15.0298C36.3451 15.5254 36.7067 15.9072 37.1487 16.175C37.6041 16.4429 38.0862 16.5768 38.5952 16.5768C39.1176 16.5768 39.6064 16.4496 40.0619 16.1951C40.5172 15.9272 40.8788 15.5522 41.1467 15.07C41.4146 14.5744 41.5485 13.9852 41.5485 13.302Z" fill="black"/>
<path d="M49.5392 9.4647C49.9009 8.87537 50.3696 8.4133 50.9455 8.07849C51.5349 7.74361 52.2045 7.57617 52.9546 7.57617V10.5295H52.2113C51.3272 10.5295 50.6575 10.7371 50.2022 11.1523C49.7602 11.5675 49.5392 12.2907 49.5392 13.3221V18.867H46.7266V7.73689H49.5392V9.4647Z" fill="black"/>
<path d="M64.793 13.061C64.793 13.4628 64.7662 13.8244 64.7127 14.1459H56.576C56.643 14.9495 56.9242 15.579 57.4198 16.0343C57.9154 16.4898 58.5248 16.7175 59.248 16.7175C60.2928 16.7175 61.0361 16.2688 61.4781 15.3714H64.5118C64.1903 16.4429 63.5742 17.3268 62.6634 18.0233C61.7526 18.7064 60.6343 19.0479 59.3083 19.0479C58.2368 19.0479 57.2725 18.8136 56.4153 18.3448C55.5715 17.8626 54.9085 17.1862 54.4264 16.3156C53.9576 15.445 53.7231 14.4405 53.7231 13.302C53.7231 12.1502 53.9576 11.139 54.4264 10.2684C54.8951 9.39778 55.5514 8.72809 56.3952 8.25937C57.239 7.79058 58.21 7.55615 59.3083 7.55615C60.3664 7.55615 61.3107 7.78386 62.1411 8.23928C62.9849 8.69463 63.6344 9.34423 64.0899 10.188C64.5587 11.0184 64.793 11.9761 64.793 13.061ZM61.8799 12.2574C61.8665 11.5341 61.6054 10.9582 61.0964 10.5295C60.5874 10.0876 59.9646 9.86657 59.2279 9.86657C58.5315 9.86657 57.9422 10.0809 57.46 10.5095C56.9912 10.9247 56.7033 11.5073 56.5961 12.2574H61.8799Z" fill="black"/>
<path d="M72.5933 18.867L70.3029 15.4114L68.274 18.867H65.2604L68.8968 13.2818L65.2202 7.73682H68.3945L70.6648 11.1723L72.7137 7.73682H75.7272L72.0711 13.2818L75.7678 18.867H72.5933Z" fill="black"/>
<path d="M76.1699 13.2619C76.1699 12.1368 76.3911 11.139 76.8328 10.2684C77.2885 9.39778 77.8975 8.72809 78.6612 8.25937C79.4382 7.79058 80.302 7.55615 81.2526 7.55615C82.0835 7.55615 82.8066 7.72359 83.4226 8.05847C84.0519 8.39328 84.5545 8.81517 84.9297 9.32414V7.73696H87.7619V18.8671H84.9297V17.2398C84.5678 17.7622 84.0652 18.1974 83.4226 18.5457C82.7933 18.8805 82.0632 19.0479 81.233 19.0479C80.295 19.0479 79.4382 18.8068 78.6612 18.3247C77.8975 17.8425 77.2885 17.1661 76.8328 16.2955C76.3911 15.4116 76.1699 14.4003 76.1699 13.2619ZM84.9297 13.302C84.9297 12.619 84.7953 12.0364 84.5279 11.5542C84.2598 11.0586 83.8979 10.6836 83.4429 10.4291C82.9872 10.1613 82.4986 10.0273 81.9764 10.0273C81.4535 10.0273 80.9712 10.1546 80.5295 10.409C80.0878 10.6635 79.7259 11.0385 79.4445 11.5341C79.1771 12.0163 79.0427 12.5922 79.0427 13.2619C79.0427 13.9315 79.1771 14.5209 79.4445 15.0298C79.7259 15.5254 80.0878 15.9072 80.5295 16.175C80.9852 16.4429 81.4668 16.5768 81.9764 16.5768C82.4986 16.5768 82.9872 16.4496 83.4429 16.1951C83.8979 15.9272 84.2598 15.5522 84.5279 15.07C84.7953 14.5744 84.9297 13.9852 84.9297 13.302Z" fill="black"/>
</g>
<defs>
<clipPath id="clip0_4114_44797">
<rect width="89.6" height="28" fill="white"/>
</clipPath>
</defs>
</svg>
